<?xml version="1.0" encoding="utf-8"?>
<!-- Generator: Adobe Illustrator 21.0.0, SVG Export Plug-In . SVG Version: 6.00 Build 0)  -->
<svg version="1.1" id="Layer_1" xmlns="http://www.w3.org/2000/svg" xmlns:xlink="http://www.w3.org/1999/xlink" x="0px" y="0px"
	 viewBox="0 0 358 61" style="enable-background:new 0 0 358 61;" xml:space="preserve">
<style type="text/css">
	.st0{fill:#F47D20;}
	.st1{fill:#B6B6B6;}
	.st2{fill:none;}
</style>
<path class="st0" d="M3.9,32.8c-0.8,0-1.5-0.3-2.1-0.8c-0.6-0.5-0.9-1.2-0.9-2.1V9.1c0-0.8,0.3-1.5,0.9-2.1l6-6
	c0.4-0.6,1.1-0.9,2-0.9h29.8c0.8,0,1.5,0.3,2.1,0.9c0.6,0.6,0.9,1.3,0.9,2.1s-0.3,1.5-0.9,2.1c-0.6,0.6-1.3,0.9-2.1,0.9H11l-4.1,4.2
	v16.6h26.7c0.8,0,1.5,0.3,2.1,0.9c0.6,0.6,0.9,1.3,0.9,2.1c0,0.8-0.3,1.5-0.9,2.1c-0.6,0.5-1.3,0.8-2.1,0.8H3.9z M0.9,38.7
	c0-0.8,0.3-1.5,0.9-2.1C2.3,36,3,35.8,3.9,35.8c0.8,0,1.5,0.3,2.1,0.9c0.6,0.6,0.9,1.3,0.9,2.1v17.8c0,0.8-0.3,1.5-0.9,2.1
	c-0.6,0.6-1.3,0.9-2.1,0.9c-0.8,0-1.5-0.3-2.1-0.9c-0.6-0.6-0.9-1.3-0.9-2.1V38.7z"/>
<path class="st0" d="M64.4,5.1c-0.6-0.6-0.8-1.3-0.8-2.1c0-0.8,0.4-1.5,1-2.1c0.6-0.6,1.3-0.8,2.1-0.8c0.8,0,1.5,0.4,2.1,1l45,54.6
	c0.6,0.6,0.8,1.3,0.8,2.1c0,0.8-0.4,1.5-1,2.1c-0.6,0.6-1.3,0.8-2.1,0.8c-0.8,0-1.5-0.4-2.1-1L64.4,5.1z"/>
<path class="st1" d="M123.7,3.1c0-0.8,0.3-1.5,0.9-2.1c0.6-0.6,1.3-0.9,2.1-0.9s1.5,0.3,2.1,0.9c0.6,0.6,0.9,1.3,0.9,2.1v54.4
	c0,0.8-0.3,1.5-0.9,2.1c-0.6,0.6-1.3,0.9-2.1,0.9s-1.5-0.3-2.1-0.9c-0.6-0.6-0.9-1.3-0.9-2.1V3.1z"/>
<path class="st1" d="M201.1,58.7c-0.6,0.6-1.3,0.9-2.1,0.9h-18.3c-0.8,0-1.5-0.3-2.1-0.9c-0.6-0.6-0.9-1.3-0.9-2.1
	c0-0.8,0.3-1.5,0.9-2.1c0.6-0.6,1.3-0.9,2.1-0.9h17.1l4.2-4.1V39.2l-33.8-14.1c-1.2-0.4-1.8-1.3-1.8-2.7V9.1c0-0.8,0.3-1.5,0.9-2.1
	l6-6c0.4-0.6,1.1-0.9,2-0.9h7.5c0.8,0,1.5,0.3,2.1,0.9c0.5,0.6,0.8,1.3,0.8,2.1s-0.3,1.5-0.8,2.1c-0.5,0.6-1.2,0.9-2.1,0.9h-6.3
	l-4.1,4.2v10.1l33.8,14.1c0.5,0.3,0.9,0.6,1.3,1.1c0.4,0.5,0.5,1,0.5,1.7v13.4c0,0.8-0.3,1.4-0.9,2L201.1,58.7z M175.2,59.5
	c-0.9,0-1.6-0.3-2-0.9l-6-6c-0.6-0.4-0.9-1.1-0.9-2v-3c0-0.8,0.3-1.5,0.9-2.1c0.6-0.6,1.3-0.9,2.1-0.9c0.8,0,1.5,0.3,2.1,0.9
	c0.6,0.6,0.9,1.3,0.9,2.1v1.7l4.1,4.1h6.3c0.8,0,1.5,0.3,2.1,0.9c0.5,0.6,0.8,1.3,0.8,2.1c0,0.8-0.3,1.5-0.8,2.1
	c-0.5,0.6-1.2,0.9-2.1,0.9H175.2z M208,12.1c0,0.8-0.3,1.5-0.9,2.1c-0.6,0.5-1.3,0.8-2.1,0.8s-1.5-0.3-2.1-0.8
	c-0.6-0.5-0.9-1.2-0.9-2.1v-1.7l-4.2-4.2h-6.2c-0.8,0-1.5-0.3-2.1-0.9c-0.6-0.6-0.9-1.3-0.9-2.1s0.3-1.5,0.9-2.1
	c0.6-0.6,1.3-0.9,2.1-0.9h7.4c0.8,0,1.5,0.3,2.1,0.9l6,6c0.6,0.7,0.9,1.4,0.9,2.1V12.1z"/>
<path class="st1" d="M225.4,59.5c-0.9,0-1.6-0.3-2-0.9l-6-6c-0.6-0.4-0.9-1.1-0.9-2V9.1c0-0.8,0.3-1.5,0.9-2.1l6-6
	c0.4-0.6,1.1-0.9,2-0.9h16.3c0.8,0,1.5,0.3,2.1,0.9c0.5,0.6,0.8,1.3,0.8,2.1s-0.3,1.5-0.8,2.1c-0.5,0.6-1.2,0.9-2.1,0.9h-15
	l-4.1,4.2v39.1l4.1,4.1h6.3c0.8,0,1.5,0.3,2.1,0.9c0.5,0.6,0.8,1.3,0.8,2.1c0,0.8-0.3,1.5-0.8,2.1c-0.5,0.6-1.2,0.9-2.1,0.9H225.4z
	 M251.3,58.7c-0.6,0.6-1.3,0.9-2.1,0.9h-7.4c-0.8,0-1.5-0.3-2.1-0.9c-0.6-0.6-0.9-1.3-0.9-2.1c0-0.8,0.3-1.5,0.9-2.1
	c0.6-0.6,1.3-0.9,2.1-0.9h6.2l4.2-4.1V10.3l-4.2-4.2h-6.2c-0.8,0-1.5-0.3-2.1-0.9c-0.6-0.6-0.9-1.3-0.9-2.1s0.3-1.5,0.9-2.1
	c0.6-0.6,1.3-0.9,2.1-0.9h7.4c0.8,0,1.5,0.3,2.1,0.9l6,6c0.6,0.7,0.9,1.4,0.9,2.1v41.6c0,0.8-0.3,1.4-0.9,2L251.3,58.7z"/>
<path class="st1" d="M268.9,32.8c-0.8,0-1.5-0.3-2.1-0.8c-0.6-0.5-0.9-1.2-0.9-2.1V9.1c0-0.8,0.3-1.5,0.9-2.1l6-6
	c0.4-0.6,1.1-0.9,2-0.9h29.8c0.8,0,1.5,0.3,2.1,0.9c0.6,0.6,0.9,1.3,0.9,2.1s-0.3,1.5-0.9,2.1c-0.6,0.6-1.3,0.9-2.1,0.9h-28.5
	l-4.1,4.2v16.6h26.7c0.8,0,1.5,0.3,2.1,0.9c0.6,0.6,0.9,1.3,0.9,2.1c0,0.8-0.3,1.5-0.9,2.1c-0.6,0.5-1.3,0.8-2.1,0.8H268.9z
	 M265.9,38.7c0-0.8,0.3-1.5,0.9-2.1c0.6-0.6,1.3-0.9,2.1-0.9c0.8,0,1.5,0.3,2.1,0.9c0.6,0.6,0.9,1.3,0.9,2.1v17.8
	c0,0.8-0.3,1.5-0.9,2.1c-0.6,0.6-1.3,0.9-2.1,0.9c-0.8,0-1.5-0.3-2.1-0.9c-0.6-0.6-0.9-1.3-0.9-2.1V38.7z"/>
<path class="st1" d="M333.5,6.1h-14.8c-0.8,0-1.5-0.3-2.1-0.9c-0.6-0.6-0.9-1.3-0.9-2.1s0.3-1.5,0.9-2.1c0.6-0.6,1.3-0.9,2.1-0.9
	h8.9h9c0.8,0,1.5,0.3,2.1,0.9c0.6,0.6,0.9,1.3,0.9,2.1v53.5c0,0.8-0.3,1.5-0.9,2.1c-0.6,0.6-1.3,0.9-2.1,0.9c-0.8,0-1.5-0.3-2.1-0.9
	c-0.6-0.6-0.9-1.3-0.9-2.1V6.1z M345.3,6.1c-0.8,0-1.5-0.3-2.1-0.9c-0.5-0.6-0.8-1.3-0.8-2.1s0.3-1.5,0.8-2.1
	c0.5-0.6,1.2-0.9,2.1-0.9h9c0.8,0,1.5,0.3,2.1,0.9c0.6,0.6,0.9,1.3,0.9,2.1s-0.3,1.5-0.9,2.1c-0.6,0.6-1.3,0.9-2.1,0.9H345.3z"/>
<path class="st0" d="M49.4,11.5V3.1c0-1.7,1.4-3,3-3h0c1.7,0,3,1.4,3,3v8.3c0,1.7-1.4,3-3,3h0C50.7,14.5,49.4,13.1,49.4,11.5z"/>
<path class="st0" d="M49.4,56.5v-8.3c0-1.7,1.4-3,3-3h0c1.7,0,3,1.4,3,3v8.3c0,1.7-1.4,3-3,3h0C50.7,59.5,49.4,58.2,49.4,56.5z"/>
<path class="st1" d="M63.6,56.5V38.8c0-1.7,1.4-3,3-3l0,0c1.7,0,3,1.4,3,3v17.7c0,1.7-1.4,3-3,3l0,0C65,59.5,63.6,58.1,63.6,56.5z"
	/>
<path class="st1" d="M110,20.8V3.1c0-1.7,1.4-3,3-3l0,0c1.7,0,3,1.4,3,3v17.7c0,1.7-1.4,3-3,3l0,0C111.3,23.8,110,22.5,110,20.8z"/>
<path class="st0" d="M132.8,5.1c-0.5-0.6-0.8-1.4-0.7-2.2c0.1-0.8,0.4-1.5,1-2s1.4-0.8,2.2-0.7c0.8,0.1,1.5,0.4,2,1l22.8,27.3
	c0.5,0.6,0.8,1.4,0.7,2.2c-0.1,0.8-0.4,1.5-1,2s-1.4,0.8-2.2,0.7c-0.8-0.1-1.5-0.4-2-1L132.8,5.1z"/>
<path class="st0" d="M137.3,59.4c-0.5,0.6-1.2,1-2,1c-0.8,0.1-1.5-0.2-2.2-0.7s-1-1.2-1-2c-0.1-0.8,0.2-1.5,0.7-2.2l22.8-27.1
	c0.5-0.6,1.2-1,2-1c0.8-0.1,1.5,0.2,2.2,0.7s1,1.2,1,2c0.1,0.8-0.2,1.5-0.7,2.2L137.3,59.4z"/>
<rect id="_x3C_Slice_x3E_" class="st2" width="358" height="61"/>
</svg>
